<svg xmlns="http://www.w3.org/2000/svg" width="1200" height="760" viewBox="0 0 1200 760" fill="none">
  <rect width="1200" height="760" rx="28" fill="#FFFFFF"/>
  <rect x="26" y="26" width="1148" height="708" rx="22" fill="#F8FBFE" stroke="#D7E2EC"/>
  <text x="72" y="102" fill="#15324B" font-family="Inter, Arial, sans-serif" font-size="34" font-weight="700">模块化生产率的关键规模门槛</text>
  <text x="72" y="144" fill="#4B6478" font-family="Inter, Arial, sans-serif" font-size="19">根据 McKinsey Global Institute（2019）Exhibit 9 整理绘制</text>

  <line x1="130" y1="612" x2="1048" y2="612" stroke="#9FB3C5" stroke-width="2"/>
  <line x1="130" y1="612" x2="130" y2="214" stroke="#9FB3C5" stroke-width="2"/>

  <line x1="130" y1="502" x2="1048" y2="502" stroke="#E2EAF1" stroke-width="2"/>
  <line x1="130" y1="392" x2="1048" y2="392" stroke="#E2EAF1" stroke-width="2"/>
  <line x1="130" y1="282" x2="1048" y2="282" stroke="#E2EAF1" stroke-width="2"/>

  <text x="74" y="618" fill="#5C7387" font-family="Inter, Arial, sans-serif" font-size="18">0</text>
  <text x="60" y="508" fill="#5C7387" font-family="Inter, Arial, sans-serif" font-size="18">-20%</text>
  <text x="60" y="398" fill="#5C7387" font-family="Inter, Arial, sans-serif" font-size="18">-40%</text>
  <text x="60" y="288" fill="#5C7387" font-family="Inter, Arial, sans-serif" font-size="18">-60%</text>
  <text transform="rotate(-90 38 436)" x="38" y="436" fill="#5C7387" font-family="Inter, Arial, sans-serif" font-size="18">相对现场施工的人工投入变化</text>

  <line x1="222" y1="612" x2="222" y2="628" stroke="#9FB3C5" stroke-width="2"/>
  <line x1="498" y1="612" x2="498" y2="628" stroke="#9FB3C5" stroke-width="2"/>
  <line x1="774" y1="612" x2="774" y2="628" stroke="#9FB3C5" stroke-width="2"/>
  <line x1="1048" y1="612" x2="1048" y2="628" stroke="#9FB3C5" stroke-width="2"/>
  <text x="198" y="660" fill="#5C7387" font-family="JetBrains Mono, monospace" font-size="20">1,000</text>
  <text x="474" y="660" fill="#5C7387" font-family="JetBrains Mono, monospace" font-size="20">5,000</text>
  <text x="740" y="660" fill="#5C7387" font-family="JetBrains Mono, monospace" font-size="20">10,000+</text>
  <text x="808" y="710" fill="#5C7387" font-family="Inter, Arial, sans-serif" font-size="18">年产模块单元数量</text>

  <rect x="222" y="332" width="552" height="280" fill="#E9EFF5"/>
  <rect x="498" y="262" width="550" height="350" fill="#DCEAF8" fill-opacity="0.72"/>

  <path d="M130 612 C 178 612, 196 584, 214 520 C 224 468, 244 438, 276 428 C 336 410, 396 406, 474 404 C 518 402, 572 394, 628 382 C 700 367, 772 358, 1048 348" stroke="#D74E5A" stroke-width="6" fill="none"/>
  <path d="M130 612 C 180 612, 198 566, 222 470 C 238 420, 260 390, 302 362 C 380 308, 470 286, 572 272 C 676 258, 804 250, 1048 244" stroke="#F39C34" stroke-width="4" stroke-dasharray="10 10" fill="none"/>
  <path d="M130 612 C 184 612, 206 594, 228 556 C 246 520, 278 498, 334 488 C 420 470, 548 452, 680 444 C 812 436, 922 430, 1048 426" stroke="#4B89C8" stroke-width="4" stroke-dasharray="6 10" fill="none"/>

  <circle cx="222" cy="470" r="9" fill="#FFFFFF" stroke="#D74E5A" stroke-width="4"/>
  <circle cx="498" cy="404" r="9" fill="#FFFFFF" stroke="#D74E5A" stroke-width="4"/>
  <circle cx="774" cy="364" r="9" fill="#FFFFFF" stroke="#D74E5A" stroke-width="4"/>

  <line x1="222" y1="612" x2="222" y2="456" stroke="#F39C34" stroke-width="3" stroke-dasharray="8 8"/>
  <line x1="498" y1="612" x2="498" y2="390" stroke="#F39C34" stroke-width="3" stroke-dasharray="8 8"/>

  <rect x="248" y="448" width="182" height="84" rx="16" fill="#FFFFFF" stroke="#D7E2EC"/>
  <text x="272" y="482" fill="#183650" font-family="Inter, Arial, sans-serif" font-size="22" font-weight="700">第一门槛</text>
  <text x="272" y="514" fill="#51697C" font-family="Inter, Arial, sans-serif" font-size="18">约 1,000 单元/年</text>
  <text x="272" y="540" fill="#51697C" font-family="Inter, Arial, sans-serif" font-size="18">值得投入自动化</text>

  <rect x="528" y="318" width="224" height="100" rx="16" fill="#FFFFFF" stroke="#D7E2EC"/>
  <text x="552" y="352" fill="#183650" font-family="Inter, Arial, sans-serif" font-size="22" font-weight="700">第二门槛</text>
  <text x="552" y="384" fill="#51697C" font-family="Inter, Arial, sans-serif" font-size="18">约 5,000 单元/年</text>
  <text x="552" y="410" fill="#51697C" font-family="Inter, Arial, sans-serif" font-size="18">工艺优化与精益制造</text>

  <rect x="840" y="126" width="280" height="130" rx="18" fill="#FFFFFF" stroke="#D7E2EC"/>
  <circle cx="874" cy="164" r="8" fill="#D74E5A"/>
  <text x="894" y="171" fill="#51697C" font-family="Inter, Arial, sans-serif" font-size="18">基准自动化路径</text>
  <line x1="866" y1="201" x2="884" y2="201" stroke="#F39C34" stroke-width="4" stroke-dasharray="9 8"/>
  <text x="894" y="207" fill="#51697C" font-family="Inter, Arial, sans-serif" font-size="18">更高自动化</text>
  <line x1="866" y1="237" x2="884" y2="237" stroke="#4B89C8" stroke-width="4" stroke-dasharray="6 10"/>
  <text x="894" y="243" fill="#51697C" font-family="Inter, Arial, sans-serif" font-size="18">较低自动化</text>

  <rect x="92" y="86" width="8" height="72" rx="4" fill="#1E6FB9"/>
</svg>
